<?xml version="1.0" standalone="no"?>
<!DOCTYPE svg PUBLIC "-//W3C//DTD SVG 20010904//EN"
 "http://www.w3.org/TR/2001/REC-SVG-20010904/DTD/svg10.dtd">
<svg version="1.0" xmlns="http://www.w3.org/2000/svg"
 width="500.000000pt" height="500.000000pt" viewBox="0 0 500.000000 500.000000"
 preserveAspectRatio="xMidYMid meet">
<metadata>
Created by potrace 1.14, written by Peter Selinger 2001-2017
</metadata>
<g transform="translate(0.000000,500.000000) scale(0.100000,-0.100000)"
fill="#000000" stroke="none">
<path d="M2298 4995 c-2 -1 -39 -5 -83 -9 -177 -15 -330 -47 -500 -106 -49
-17 -98 -34 -107 -37 -10 -3 -18 -8 -18 -12 0 -4 -113 -5 -250 -4 -248 3 -251
3 -298 -21 -58 -29 -85 -58 -111 -116 -17 -38 -21 -66 -21 -176 l0 -131 -32
-30 c-191 -174 -426 -504 -564 -790 l-54 -113 -73 49 c-102 69 -156 96 -168
84 -7 -7 -3 -32 10 -74 19 -62 34 -133 46 -214 3 -22 7 -53 10 -70 3 -16 7
-46 9 -65 3 -19 8 -57 12 -85 9 -66 10 -53 -19 -195 -15 -69 -29 -147 -33
-175 -4 -27 -9 -59 -12 -70 -13 -51 -10 -544 4 -640 36 -255 104 -486 203
-690 63 -129 176 -307 233 -366 30 -32 34 -43 35 -90 2 -129 14 -458 19 -504
5 -48 48 -153 76 -185 34 -40 112 -93 163 -111 53 -19 90 -20 723 -24 1883
-14 2098 -14 2134 -5 91 25 181 123 192 211 3 19 10 80 17 137 7 56 15 98 19
92 3 -5 39 12 82 39 l76 49 5 -41 c3 -23 6 -70 7 -104 1 -64 5 -97 14 -111 10
-17 15 -92 5 -92 -32 0 -299 -152 -299 -170 0 -14 22 -17 110 -14 164 5 284
15 297 26 17 13 17 32 0 22 -9 -6 -9 -4 1 8 11 13 10 27 -3 77 -16 62 -18 132
-3 141 4 3 10 69 13 145 11 248 2 218 87 296 41 37 101 100 133 139 31 38 60
70 64 70 3 0 24 -42 45 -93 95 -224 167 -404 192 -475 14 -42 30 -81 34 -87 9
-11 26 -104 21 -119 -1 -5 -5 -27 -8 -50 -3 -23 -6 -43 -6 -46 -1 -3 3 -15 7
-28 7 -22 12 -23 86 -21 95 2 109 8 92 41 -14 27 -41 73 -64 108 -11 18 -15
43 -13 85 2 45 -9 106 -42 240 -48 197 -116 444 -162 598 l-30 99 35 75 35 75
37 -4 c51 -7 88 8 101 40 7 21 83 409 117 602 2 14 9 48 14 75 16 77 17 87 24
135 3 25 12 74 20 110 18 89 8 117 -50 132 l-44 12 -1 61 c0 33 -2 80 -4 105
-2 25 -6 78 -10 119 -42 539 -260 1080 -595 1476 -43 51 -223 225 -271 262
-44 33 -47 38 -53 94 -7 73 -33 125 -84 171 -56 51 -93 59 -270 63 -135 2
-165 6 -212 25 -189 76 -401 128 -675 166 -47 6 -411 14 -417 9z m-1861 -3167
c-3 -8 -6 -5 -6 6 -1 11 2 17 5 13 3 -3 4 -12 1 -19z m0 -70 c-3 -8 -6 -5 -6
6 -1 11 2 17 5 13 3 -3 4 -12 1 -19z m0 -70 c-3 -8 -6 -5 -6 6 -1 11 2 17 5
13 3 -3 4 -12 1 -19z m0 -55 c-3 -10 -5 -4 -5 12 0 17 2 24 5 18 2 -7 2 -21 0
-30z m0 -45 c-3 -8 -6 -5 -6 6 -1 11 2 17 5 13 3 -3 4 -12 1 -19z m0 -40 c-3
-8 -6 -5 -6 6 -1 11 2 17 5 13 3 -3 4 -12 1 -19z m71 -329 c-3 -8 -7 -3 -11
10 -4 17 -3 21 5 13 5 -5 8 -16 6 -23z m-1 -71 c-3 -8 -6 -5 -6 6 -1 11 2 17
5 13 3 -3 4 -12 1 -19z m3380 -280 c-3 -8 -6 -5 -6 6 -1 11 2 17 5 13 3 -3 4
-12 1 -19z m-10 -190 c-3 -8 -6 -5 -6 6 -1 11 2 17 5 13 3 -3 4 -12 1 -19z
m-30 -644 c-3 -3 -12 -4 -19 -1 -8 3 -5 6 6 6 11 1 17 -2 13 -5z"/>
</g>
</svg>
